<?xml version="1.0" encoding="UTF-8"?>
<svg width="462px" height="512px" viewBox="0 0 462 512" version="1.1" xmlns="http://www.w3.org/2000/svg" xmlns:xlink="http://www.w3.org/1999/xlink">
    <!-- Generator: Sketch 55.2 (78181) - https://sketchapp.com -->
    <title>Shape</title>
    <desc>Created with Sketch.</desc>
    <g id="Page-1" stroke="none" stroke-width="1" fill="none" fill-rule="evenodd">
        <g id="Font_Awesome_5_brands_hubspot" fill="#FE7959" fill-rule="nonzero">
            <path d="M242.4,211.6 C217.3,235.3 201.6,268.9 201.6,306.2 C201.6,335.5 211.3,362.5 227.6,384.2 L178.1,434 C173.7,432.4 169,431.5 164.1,431.5 C153.3,431.5 143.2,435.7 135.6,443.3 C128,450.9 123.8,461.1 123.8,471.9 C123.8,482.7 128,492.8 135.6,500.4 C143.2,508 153.4,512 164.1,512 C174.9,512 185,508.1 192.7,500.4 C200.3,492.8 204.5,482.6 204.5,471.9 C204.5,467.7 203.9,463.7 202.6,459.8 L252.6,409.6 C274.6,426.5 302,436.5 331.9,436.5 C403.8,436.5 461.9,378.2 461.9,306.3 C461.9,241.1 414.2,187.1 351.7,177.6 L351.7,116 C369.2,108.6 379.9,92.2 379.9,73.1 C379.9,47 359,25.2 332.9,25.2 C306.8,25.2 286.2,47 286.2,73.1 C286.2,92.2 296.9,108.6 314.4,116 L314.4,177.2 C299.2,179.3 284.8,183.9 271.7,190.8 C244.1,169.9 154.2,105.1 102.8,66 C104,61.6 104.8,57 104.8,52.2 C104.8,23.4 81.3,0 52.4,0 C23.6,0 0.2,23.4 0.2,52.2 C0.2,81.1 23.6,104.5 52.4,104.5 C62.2,104.5 71.3,101.6 79.2,96.9 L242.4,211.6 Z M331.9,375.2 C293.8,375.2 262.9,344.3 262.9,306.2 C262.9,268.1 293.8,237.2 331.9,237.2 C370,237.2 400.9,268.1 400.9,306.2 C400.9,344.3 370,375.2 331.9,375.2 Z" id="Shape"></path>
        </g>
    </g>
</svg>